<?xml version="1.0" encoding="utf-8"?>
<!-- Generator: Adobe Illustrator 25.3.1, SVG Export Plug-In . SVG Version: 6.00 Build 0)  -->
<svg version="1.1" xmlns="http://www.w3.org/2000/svg" xmlns:xlink="http://www.w3.org/1999/xlink" x="0px" y="0px"
	 viewBox="0 0 186.7 200.3" style="enable-background:new 0 0 186.7 200.3;" xml:space="preserve">
<style type="text/css">
	.st0{fill:#B3B3B3;}
	.st1{fill:#B74526;}
</style>
<g id="Layer_1">
	<g>
		<path class="st0" d="M62.9,187.2v-32.9c0-1,0.8-1.9,1.9-1.9h8.6c2.7,0,4.8,0.4,6.3,1.1c1.5,0.7,2.6,1.7,3.2,2.9
			c1.1,2.3,1.2,5.1,0.3,8.5c-0.1,0.4-0.3,0.8-0.5,1.2c-0.6,1.1-1.6,2-3,2.8c-1.5,0.8-3.6,1.2-6.2,1.2h-5.4v16.8
			c0,0.9-0.7,1.6-1.6,1.6h-2.2C63.5,188.6,62.9,188,62.9,187.2z M67.8,163c0,1.2-0.1,2.4,0.7,3c0.6,0.5,2.1,0.5,2.9,0.5h0.1
			c1.8,0,3.3-0.2,4.5-0.7c1.2-0.4,2.3-0.8,2.9-1.8c0.6-1,0.6-1.5,0.6-3.1c0-1.3-0.1-1.3-0.6-2.3c-0.5-1-1.3-1.6-2.5-2
			c-1.1-0.4-2.7-0.6-4.6-0.6h-1.6c-1.2,0-2.1,0.9-2.1,2.1L67.8,163z"/>
		<path class="st0" d="M85.2,187.4v-33.3c0-0.8,0.6-1.4,1.4-1.4h2.7c0.6,0,1.1,0.5,1.1,1.1v9.8c0,1.3,1.1,2.4,2.5,2.4h7.1
			c1,0,1.7-0.8,1.7-1.7v-9.7c0-1,0.8-1.8,1.8-1.8h2.1c0.7,0,1.3,0.6,1.3,1.3v33.1c0,0.9-0.8,1.7-1.7,1.7h-2.2
			c-0.7,0-1.3-0.5-1.3-1.2v-14.2c0-1.4-1.2-2.5-2.6-2.5h-7c-0.9,0-1.7,0.8-1.7,1.7v14.6c0,0.9-0.7,1.7-1.7,1.7h-2.2
			C85.9,188.8,85.2,188.2,85.2,187.4z"/>
		<path class="st0" d="M110.3,188.8c-0.9,0-1.6-0.9-1.3-1.7l8.7-33.4c0.1-0.6,0.7-1,1.3-1h1.2c0.7,0,1.4,0.5,1.6,1.2l8.8,33.4
			c0.2,0.7-0.4,1.4-1.2,1.4h-1.6c-0.8,0-1.6-0.6-1.8-1.4l-1.5-5.8c-0.3-1-1.2-1.6-2.2-1.6h-4.9c-1.1,0-2.1,0.7-2.3,1.7l-1.6,5.8
			c-0.2,0.7-0.9,1.2-1.7,1.2H110.3z M119.7,176.3h0.2c1.6,0,2.9-1.5,2.5-3.1l-2-8.9c-0.2-0.7-1.2-0.7-1.4,0l-2.1,8.2
			C116.4,174.5,117.5,176.3,119.7,176.3z"/>
		<path class="st0" d="M133.8,188.8c-0.8,0-1.5-0.7-1.5-1.5v-33.5c0-0.6,0.5-1.1,1.2-1.1h1.9c0.7,0,1.3,0.4,1.5,1l9.9,22.5
			c1.1,2.3,1.4,2.1,1.4-0.4V154c0-0.7,0.6-1.2,1.3-1.2h2.3c0.9,0,1.6,0.7,1.6,1.6v33c0,0.8-0.7,1.5-1.6,1.5l-2.1,0
			c-0.7,0-1.4-0.4-1.7-1.1l-10-21.8c-1-2-1.2-1.9-1.2,0.4v21c0,0.8-0.7,1.5-1.5,1.5H133.8z"/>
		<path class="st0" d="M164,188.8c-0.7,0-1.2-0.5-1.2-1.2v-29c0-1-0.8-1.8-1.8-1.8l-4.8,0c-0.7,0-1.2-0.5-1.2-1.2v-1.8
			c0-0.6,0.5-1.1,1.1-1.1h18.3c0.7,0,1.2,0.5,1.2,1.2v0.3c0,1-0.8,2.6-1.8,2.6h-4.7c-1,0-1.8,0.8-1.8,1.8v29c0,0.7-0.5,1.2-1.2,1.2
			L164,188.8z"/>
	</g>
</g>
<g id="Layer_2">
	<path class="st1" d="M178.9,79.9V49.5c0,0-0.1-10.6-4.4-20.4c-4.3-9.8-12.3-16.9-25.9-19.7s-29-0.9-31.2-0.5
		c-5,0.8-10.5,3.5-11.3,3.5s-6.4-0.4-14.6-0.4c-8.2,0-15.2,2-15.2,2c-9.4,2.3-14.8,4.9-20.7,10S48.3,34.2,46,40.8
		c-2.3,6.5-3.2,16.4-3.2,16.4l-1.5,18.2c0,0-0.4,13.1-0.8,19.4c-0.2,4-4.4,3.8-4.4,3.8s-7.5,0.1-9.4,0c-1.9-0.1-2,1.5-2,1.5
		s-0.1,3.9-0.1,6.9c0,3,2.1,2.7,2.1,2.7s7.2,0,10.1,0c2.9,0,2.9,2.5,2.9,2.5l0,4.9c0,0,0.6,35.6,0.5,47.4c0,3.6-0.3,10.9-7.1,12.4
		c0,0-2.5,0.9-7.1-0.4c0,0-4.1-0.8-8.8-5c-4.7-4.2-9-4.7-8.8,2.4c0,0,0,6.8,6.4,12.5c0,0,7.1,6.4,17.9,5.4c0,0,14-0.6,19.3-10.6
		c0,0,4.7-7.1,4.9-20.9c0.3-13.8,0.6-39.6,0.6-39.6l0.1-8.2c0,0,0.3-2.8,3.2-2.8c2.9,0,8,0,8,0s2.1,0.2,2.1-2s0-7.2,0-7.2
		s0.2-2-2.1-2s-9.3,0-9.3,0s-2-0.3-2-2.7V80c0-0.7,0.8-0.9,1.2-0.4c0.4,0.5,0.9,1,1.5,1.3c1.9,1.1,5.1,3.1,12.7,2.9
		c6.5-0.2,10.2-0.9,12.6-3.1c0.4-0.4,1.2-0.1,1.2,0.5l0.1,25.3c0,0,0,12.3,5,21.9c5,9.7,8.9,14.6,18.8,17.3
		c9.9,2.7,30.8,2.5,36.2,1.4c5.4-1.1,18-3.1,25.4-15.7c0,0,5.8-10,6.6-21.5C179.4,98.3,178.9,79.9,178.9,79.9z M85.6,69.7h-4.5
		c-1,0-2,0.6-2.4,1.6c0,0.1-0.1,0.3-0.1,0.4c-0.4,1.8,0,4.3-3.9,4.3c0,0-3,0-4.6-0.3c-1.5-0.4-5.3-3.8-2-7.5
		c0.4-0.5,0.9-0.8,1.5-0.9c0.4-0.1,0.9-0.2,1.5-0.2c1.6,0,12.6,0,12.6,0h0.9c0,0,1.7-0.2,1.9,0.8C86.7,69.1,86.7,69.7,85.6,69.7z
		 M66.8,61.2c0.6-2.5,1.2-3.3,3.1-4c0,0,3.1-0.9,6,0.1c0.5,0.2,1,0.4,1.4,0.8c0.6,0.6,1.3,1.5,1.3,2.7c0,1.9-1.1,3-4.1,3
		c-3,0-6.1,0-6.1,0S66.2,63.7,66.8,61.2z M92.7,26.4c-1.9,3.4-5.2,9.1-5.6,18.7c0,0-0.5,6.8-0.4,9c0,0,0.1,1.1-1.3-0.6
		C84,51.7,78.1,48.6,65,51c0,0-5.2,1-7.3,5c0,0-0.5,1.7-0.3-0.8c0,0,0.1-6.3,0.5-9.1c0.4-2.7,0.9-6.2,1.7-8.3c0.8-2,1.9-5.9,8.2-9.5
		c0,0,4-2.2,8.8-3.1c0,0,5.9-1.1,15.2-1.3C91.9,24,94.3,23.6,92.7,26.4z M157.2,76.3v23.2c0,0,0.2,11.5-0.4,14.5
		c-0.6,3-1.2,12.1-9.5,16.1c-8.4,4-30.5,6.3-35.9-6.2c0,0-3-6.7-3-14.5s0-22.2,0-22.2V68l0.1-20.4c0,0,0.2-10.8,4.3-17.2
		c0,0,2.5-4.3,7.5-5c0,0,12.9-2.6,25.6,0.3c12.5,2.9,11.4,23.2,11.4,23.7c0,0,0,0,0,0L157.2,76.3z"/>
</g>
</svg>
