<?xml version="1.0" encoding="utf-8"?>
<!-- Generator: Adobe Illustrator 25.3.1, SVG Export Plug-In . SVG Version: 6.00 Build 0)  -->
<svg version="1.1" id="Layer_1" xmlns="http://www.w3.org/2000/svg" xmlns:xlink="http://www.w3.org/1999/xlink" x="0px" y="0px"
	 viewBox="0 0 505.17 288.79" style="enable-background:new 0 0 505.17 288.79;" xml:space="preserve">
<style type="text/css">
	.st0{fill:#B3B3B3;}
	.st1{fill:#B64326;}
	.st2{fill:#B3B4B4;}
	.st3{fill:#7F7F7F;}
</style>
<path class="st0" d="M123.87,20.31c-3.09-0.42-6.06-0.62-8.92-0.62c-9.47,0-25.27-1.72-35.53,13.11C75.58,38.34,72.21,44.14,71,52.3
	c-1.21,8.17-1.82,17.37-1.82,27.6v55.29c0,2.07-1.34,3.75-2.98,3.75H53.19c-1.65,0-2.98,1.68-2.98,3.75v7.86
	c0,2.07,1.34,3.75,2.98,3.75h16h0.1l0.56,52.16c0,13-0.99,22.41-2.97,28.22c-1.98,5.81-6.71,8.72-14.2,8.72
	c-1.98,0-4.24-0.21-6.77-0.62c-1.21-0.2-2.38-0.44-3.51-0.74c-1.85-0.48-3.59,1.28-3.59,3.66v9.01c0,1.69,0.9,3.19,2.2,3.63
	c2.01,0.67,4.14,1.16,6.39,1.46c3.09,0.42,6.06,0.62,8.92,0.62c9.47,0,16.41-2.43,20.81-7.26c4.41-4.85,7.22-11.35,8.42-19.51
	c1.21-8.17,1.82-17.37,1.82-27.6l-0.6-47.94c-0.03-2.09,1.32-3.81,2.98-3.81h10.42c1.65,0,2.98-1.68,2.98-3.75v-7.86
	c0-2.07-1.34-3.75-2.98-3.75H89.68c-1.65,0-2.98-1.68-2.98-3.75v-55.7c0-13-0.65-27.36,2.06-32.69
	c6.32-12.47,22.35-10.09,29.84-10.09c1.98,0,4.24,0.21,6.77,0.62c1.21,0.2,2.38,0.44,3.51,0.74c1.85,0.48,3.59-1.28,3.59-3.66v-9.01
	c0-1.69-0.9-3.19-2.2-3.63C128.25,21.1,126.12,20.61,123.87,20.31z"/>
<g>
	<path class="st1" d="M110.81,106.35c-4.18,0-7.41-0.59-9.68-1.77c-2.27-1.18-3.86-2.92-4.75-5.21c-0.89-2.29-1.34-5.11-1.34-8.46
		v-8.82c0-3.43,0.46-6.28,1.38-8.56c0.92-2.27,2.53-3.99,4.84-5.15c2.3-1.16,5.48-1.74,9.54-1.74c4.48,0,7.79,0.67,9.91,2.01
		c2.12,1.34,3.52,3.27,4.19,5.78c0.68,2.52,1.01,5.54,1.01,9.06v1.67c0,0.81-0.52,1.47-1.17,1.47h-18.68
		c-0.65,0-1.17,0.66-1.17,1.47v6.28c0,1.56,0.2,2.83,0.6,3.81c0.4,0.98,1.04,1.7,1.94,2.17c0.89,0.47,2.04,0.7,3.46,0.7
		c1.47,0,2.6-0.26,3.36-0.77c0.77-0.51,1.29-1.25,1.57-2.21c0.28-0.96,0.41-2.08,0.41-3.38v-0.87c0-0.81,0.52-1.47,1.17-1.47h7.25
		c0.65,0,1.17,0.66,1.17,1.47l0,0c0,3.88-1.14,6.93-3.41,9.16C120.15,105.24,116.28,106.35,110.81,106.35z M106.08,82.75h9
		c0.65,0,1.17-0.66,1.17-1.47v-2.01c0-1.6-0.12-2.95-0.37-4.04c-0.25-1.09-0.75-1.92-1.52-2.47c-0.77-0.56-1.98-0.84-3.64-0.84
		c-1.6,0-2.81,0.27-3.64,0.8c-0.83,0.54-1.4,1.44-1.71,2.71c-0.31,1.27-0.46,3.02-0.46,5.25v0.6
		C104.91,82.09,105.44,82.75,106.08,82.75z"/>
</g>
<g>
	<path class="st2" d="M161.51,156.82c-7.44,0-12.91-1.75-17.35-5.26c-4.45-3.5-7.62-8.52-9.53-15.04
		c-1.91-6.52-2.86-14.16-2.86-22.93V63.15c0-8.77,0.97-16.3,2.93-22.6c1.95-6.3,5.12-11.12,9.53-14.46
		c4.4-3.34,9.84-5.01,17.28-5.01c7.44,0,13.34,1.7,17.69,5.09c4.36,3.4,7.51,8.22,9.46,14.46c1.95,6.24,2.93,13.75,2.93,22.52v50.62
		c0,8.66-0.98,16.22-2.93,22.68c-1.95,6.47-5.1,11.48-9.46,15.04C174.85,155.04,168.95,156.82,161.51,156.82z M161.51,142.19
		c4.08,0,7.16-1.01,9.25-3.04c2.09-2.03,3.49-4.87,4.22-8.55c0.72-3.67,1.09-7.97,1.09-12.9V59.37c0-4.93-0.36-9.17-1.09-12.74
		c-0.73-3.56-2.13-6.3-4.22-8.22c-2.09-1.91-5.17-2.87-9.25-2.87c-4.08,0-6.71,0.96-8.85,2.87c-2.13,1.92-3.56,4.66-4.29,8.22
		c-0.73,3.56-1.09,7.81-1.09,12.74v58.34c0,4.93,0.36,9.23,1.09,12.9c0.72,3.67,2.15,6.52,4.29,8.55
		C154.8,141.18,157.43,142.19,161.51,142.19z"/>
</g>
<g>
	<path class="st3" d="M313,186.15l18.19-143.73c0.14-0.9,0.97-1.57,1.95-1.57h8.25c0.98,0,1.82,0.67,1.95,1.57l17.69,143.73
		c0.17,1.09-0.75,2.07-1.95,2.07h-7.45c-1,0-1.84-0.69-1.96-1.6l-3.25-44.91c-0.12-0.92-0.96-1.6-1.96-1.6h-14.2
		c-0.99,0-1.83,0.68-1.96,1.59l-4.05,44.93c-0.12,0.91-0.96,1.59-1.96,1.59h-7.36C313.75,188.22,312.83,187.24,313,186.15z
		 M332.36,127.9h10.02c1.18,0,2.1-0.96,1.96-2.04l-5.05-38.05c-0.28-2.13-3.64-2.13-3.92,0l-4.97,38.05
		C330.26,126.95,331.18,127.9,332.36,127.9z"/>
</g>
<g>
	<path class="st3" d="M366.24,181.08l0.3-133.42c0-1.73,1.52-3.14,3.4-3.14h8.39c1.69,0,3.13,1.15,3.37,2.69L400.19,171
		c0.61,3.89,6.83,3.44,6.77-0.49l-1.85-119.8c-0.03-1.75,1.5-3.19,3.4-3.19h4.94c1.88,0,3.4,1.41,3.4,3.14v210.94
		c0,1.73-1.52,3.14-3.4,3.14h-2.71c-1.68,0-3.11-1.13-3.36-2.67l-23.62-142.9c-0.64-3.89-6.89-3.37-6.77,0.56l1.18,61.26
		c0.05,1.77-1.48,3.23-3.4,3.23h-5.14C367.76,184.22,366.24,182.81,366.24,181.08z"/>
</g>
<g>
	<path class="st3" d="M439.36,262.04l0.23-197.5c0-1.32-1.15-2.38-2.58-2.38h-11.08c-1.43,0-2.58-1.07-2.58-2.38v-8.19
		c0-1.32,1.16-2.38,2.58-2.38l40.26,2c1.43,0,2.58,1.07,2.58,2.38v8.19c0,1.32-1.16,2.38-2.58,2.38h-10.61
		c-1.42,0-2.58,1.06-2.58,2.38l-0.23,195.51c0,1.31-1.16,2.38-2.58,2.38h-8.24C440.52,264.43,439.36,263.36,439.36,262.04z"/>
</g>
<g>
	<path class="st3" d="M198.05,261.28l0.36-206.93c0-2.62,2.3-4.73,5.14-4.73l20.1-2c6.11,0,10.98,0.59,14.62,1.77
		c3.64,1.18,6.3,2.89,7.97,5.11c1.67,2.23,2.22,8.79,2.22,11.95c0,2.85-0.94,5.33-2.82,7.42s-4.67,3.71-8.35,4.85
		c-3.68,1.14-8.28,1.7-13.81,1.7h-6.04c-2.83,0-5.13,2.12-5.14,4.73l-0.06,176.14c-0.01,2.62-2.3,4.73-5.14,4.73h-3.91
		C200.35,266.03,198.05,263.9,198.05,261.28z M212.6,66.4c0,2.62,2.3,4.74,5.14,4.74h1.39c4.1,0,7.32-0.24,9.66-0.74
		c2.34-0.49,4.02-1.35,5.02-2.57c1-1.23,1.51-2.95,1.51-5.18c0-2.58-0.36-4.57-1.07-5.95c-0.71-1.38-2.2-2.34-4.46-2.87
		c-2.26-0.54-5.77-0.8-10.54-0.8h-1.51c-2.84,0-5.14,4.12-5.14,6.74V66.4z"/>
</g>
<g>
	<path class="st3" d="M253.63,263.02V50.23c0-1.66,1.46-3.01,3.26-3.01h7.67c1.8,0,3.26,1.35,3.26,3.01v18.45
		c0,1.66,1.46,3.01,3.26,3.01h19.59c1.8,0,3.26-1.35,3.26-3.01V46.61c0-1.66,1.46-3.01,3.26-3.01h7.67c1.8,0,3.26,1.35,3.26,3.01
		l-0.3,135.08c0,1.66-1.46,3.01-3.26,3.01h-7.67c-1.8,0-3.26-1.35-3.26-3.01l0.3-93.98c0-1.66-1.46-3.01-3.26-3.01h-19.59
		c-1.8,0-3.26,1.35-3.26,3.01l0,175.31c0,1.66-1.46,3.01-3.26,3.01h-7.67C255.09,266.03,253.63,264.68,253.63,263.02z"/>
</g>
</svg>
